<svg xmlns="http://www.w3.org/2000/svg" width="120" height="60" fill="none" viewBox="0 0 120 60"><path fill="#20BEFF" d="M31.5237 38.017C31.4993 38.1136 31.4027 38.1619 31.2343 38.1619H28.0124C27.8187 38.1619 27.647 38.0775 27.5058 37.9082L22.1856 31.1405L20.7019 32.552V37.8007C20.7019 38.0422 20.581 38.1628 20.3399 38.1628H17.8426C17.601 38.1628 17.4805 38.0422 17.4805 37.8007V13.8771C17.4805 13.6363 17.601 13.5117 17.8426 13.5117H20.3403C20.5814 13.5117 20.7024 13.6327 20.7024 13.8771V28.6075L27.0722 22.1654C27.2411 21.9969 27.41 21.9121 27.5788 21.9121H30.9091C31.0536 21.9121 31.1498 21.973 31.1985 22.0927C31.2472 22.2376 31.2391 22.346 31.1579 22.4187L24.4296 28.9323L31.451 37.6549C31.5472 37.7515 31.5716 37.8721 31.5241 38.017H31.5237ZM44.5724 38.1615H42.0751C41.8096 38.1615 41.6773 38.0414 41.6773 37.7962V37.2888C40.6153 38.0844 39.2522 38.483 37.5875 38.483C36.0677 38.483 34.7521 38.0122 33.6418 37.072C32.556 36.1071 32.0132 34.88 32.0132 33.3805C32.0132 31.0159 33.4847 29.4113 36.4286 28.5669C37.5867 28.2288 39.3358 27.9398 41.6765 27.6982C41.7495 26.806 41.5141 26.0461 40.9709 25.4181C40.4278 24.7901 39.6375 24.4772 38.6003 24.4772C37.2485 24.4772 35.8737 24.9643 34.4744 25.9247C34.2572 26.0457 34.1001 26.0213 34.0035 25.8525L32.7045 24.0067C32.5836 23.8618 32.6201 23.6933 32.8129 23.5001C34.6709 22.2214 36.6011 21.5816 38.604 21.5816C40.1481 21.5816 41.4633 21.9437 42.5496 22.6675C44.1421 23.7294 44.9381 25.4303 44.9381 27.7701V37.7954C44.9381 38.0369 44.8171 38.1607 44.5728 38.1607L44.5724 38.1615ZM41.6769 30.6015C39.3119 30.843 37.6959 31.1568 36.8272 31.5424C35.6447 32.049 35.1133 32.7724 35.2343 33.7141C35.3066 34.2451 35.5725 34.6734 36.0307 34.9989C36.489 35.3245 37.02 35.512 37.6232 35.5599C39.3119 35.6805 40.6677 35.234 41.6769 34.2203V30.6015ZM59.7258 44.4409C58.4106 45.8036 56.5466 46.486 54.1341 46.486C52.7344 46.486 51.4075 46.1361 50.1531 45.4366C49.8872 45.2674 49.5739 45.0441 49.2122 44.7669C48.8505 44.4896 48.4275 44.1458 47.9457 43.7358C47.7764 43.5913 47.7646 43.4102 47.9051 43.1927L49.61 41.4877C49.6822 41.4147 49.7789 41.379 49.8994 41.379C49.9956 41.379 50.0805 41.4195 50.1527 41.4877C51.5037 42.8387 52.8189 43.5146 54.0976 43.5146C57.0203 43.5146 58.4768 41.9943 58.4768 38.9543V37.0724C57.3426 38.0134 55.835 38.4838 53.9527 38.4838C51.612 38.4838 49.778 37.6038 48.4515 35.842C47.2933 34.2983 46.7141 32.351 46.7141 30.0153C46.7141 27.7957 47.269 25.9138 48.3792 24.3728C49.6782 22.5153 51.528 21.5861 53.9169 21.5861C55.7266 21.5861 57.2468 22.057 58.4768 22.9979V22.2742C58.4768 22.033 58.5973 21.9121 58.8388 21.9121H61.3365C61.5773 21.9121 61.7019 22.033 61.7019 22.2742V38.4522C61.7019 41.081 61.0443 43.0778 59.7291 44.4409H59.7258ZM58.48 27.0508C57.8768 25.507 56.4771 24.7345 54.2819 24.7345C51.459 24.7345 50.048 26.4963 50.048 30.0185C50.048 31.9727 50.5189 33.3971 51.4594 34.2889C52.1588 34.9892 53.0637 35.3387 54.1739 35.3387C56.4414 35.3387 57.8772 34.5666 58.4768 33.0224L58.48 27.0508ZM76.7494 44.445C75.4342 45.8077 73.5701 46.49 71.1577 46.49C69.7572 46.49 68.4306 46.1401 67.1763 45.4407C66.9104 45.2714 66.597 45.0482 66.2353 44.7709C65.8737 44.4937 65.4511 44.1498 64.9688 43.7399C64.8 43.5953 64.7878 43.4143 64.9282 43.1967L66.6332 41.4918C66.7054 41.4187 66.802 41.383 66.9226 41.383C67.0188 41.383 67.1036 41.4236 67.1759 41.4918C68.5268 42.8427 69.8416 43.5186 71.1207 43.5186C74.0434 43.5186 75.5048 41.9984 75.5048 38.9584V37.0765C74.3702 38.0174 72.8662 38.4879 70.9807 38.4879C68.6401 38.4879 66.8061 37.6078 65.4795 35.8461C64.321 34.3023 63.7421 32.3551 63.7421 30.0194C63.7421 27.7997 64.297 25.9178 65.4064 24.3769C66.7054 22.5193 68.5552 21.5902 70.9441 21.5902C72.7538 21.5902 74.2736 22.0611 75.5044 23.002V22.2782C75.5044 22.0371 75.6245 21.9161 75.8665 21.9161H78.3638C78.6045 21.9161 78.7291 22.0371 78.7291 22.2782V38.4562C78.7291 41.0851 78.0715 43.0818 76.7571 44.445H76.7494ZM75.5084 27.0548C74.9048 25.5111 73.5052 24.7386 71.3099 24.7386C68.4866 24.7386 67.0752 26.5003 67.0752 30.0226C67.0752 31.9768 67.5461 33.4012 68.4866 34.293C69.1865 34.9932 70.0913 35.3427 71.2011 35.3427C73.4686 35.3427 74.9048 34.5707 75.504 33.0265V27.0593L75.5084 27.0548ZM84.2664 38.1611H81.7687C81.5276 38.1611 81.4034 38.041 81.4034 37.7958V13.8771C81.4034 13.6363 81.524 13.5117 81.7687 13.5117H84.2664C84.5071 13.5117 84.6318 13.6323 84.6318 13.8771V37.8007C84.6318 38.0418 84.5108 38.166 84.2664 38.166V38.1611ZM102.47 30.8186C102.47 31.0602 102.348 31.1807 102.108 31.1807H90.3449C90.4894 32.3632 90.9964 33.3525 91.8651 34.144C92.8543 34.9892 94.0969 35.4105 95.5932 35.4105C96.9197 35.4105 98.1099 35.0371 99.1759 34.2885C99.3935 34.1436 99.5737 34.1436 99.719 34.2885L101.424 36.0259C101.617 36.2196 101.617 36.3913 101.424 36.5325C99.6866 37.8315 97.6715 38.4867 95.3756 38.4867C92.9144 38.4867 90.8632 37.6667 89.2225 36.0259C87.6304 34.4095 86.834 32.3466 86.834 29.8371C86.834 27.4725 87.6174 25.4701 89.1863 23.8293C90.6343 22.3334 92.5162 21.5857 94.8288 21.5857C97.0241 21.5857 98.8698 22.37 100.367 23.9381C101.91 25.5549 102.622 27.5817 102.502 30.0189L102.47 30.8186ZM97.7283 25.4985C96.9084 24.7508 95.9187 24.3765 94.7651 24.3765C93.6792 24.3765 92.7256 24.7386 91.9061 25.462C91.0865 26.1853 90.5665 27.1271 90.3497 28.2852H99.072C99.0476 27.1758 98.6011 26.2462 97.7324 25.4985"/></svg>