<svg xmlns="http://www.w3.org/2000/svg" width="315" height="42" fill="none" viewBox="0 0 315 42"><line x1="1" x2="39" y1="23" y2="23" stroke="#F58025" stroke-linecap="round" stroke-width="2"/><line x1="276" x2="314" y1="23" y2="23" stroke="#1E1B1D" stroke-linecap="round" stroke-width="2"/><path fill="#1E1B1D" d="M100.408 25.9682L97.974 25.7528C96.0638 25.5991 95.3246 24.8287 95.3246 23.5346C95.3246 21.9944 96.4953 21.0388 98.7136 21.0388C100.285 21.0388 101.671 21.4089 102.75 22.2407L104.199 20.7925C102.842 19.6836 100.902 19.1601 98.7455 19.1601C95.5105 19.1601 93.1688 20.8224 93.1688 23.5963C93.1688 26.0917 94.7405 27.4164 97.6979 27.663L100.193 27.8785C101.949 28.0328 102.72 28.772 102.72 30.0967C102.72 31.8838 101.179 32.7767 98.6827 32.7767C96.803 32.7767 95.1703 32.2838 93.9673 31.0204L92.4883 32.4995C94.1522 34.1014 96.1547 34.6869 98.7119 34.6869C102.378 34.6869 104.874 32.9907 104.874 30.0658C104.874 27.2305 103.056 26.2145 100.406 25.9675L100.408 25.9682ZM119.375 19.1594C116.943 19.1594 115.411 19.6388 114.069 21.3383C114.051 21.3618 115.524 22.7943 115.524 22.7943C116.418 21.5314 117.403 21.0697 119.344 21.0697C122.117 21.0697 123.226 22.1786 123.226 24.3965V25.8444H118.668C115.279 25.8444 113.431 27.5701 113.431 30.2205C113.395 31.3567 113.804 32.462 114.57 33.3015C115.526 34.2876 116.758 34.6879 118.853 34.6879C120.886 34.6879 121.995 34.2876 123.229 33.0548V34.5027H125.447V24.212C125.447 20.9157 123.446 19.1601 119.378 19.1601L119.375 19.1594ZM123.228 29.1428C123.228 30.4064 122.981 31.2691 122.457 31.7617C121.502 32.6861 120.363 32.7794 119.069 32.7794C116.666 32.7794 115.587 31.9472 115.587 30.191C115.587 28.4348 116.696 27.5111 118.976 27.5111H123.228V29.1428ZM134.134 21.1331C135.582 21.1331 136.474 21.5643 137.615 22.8272C137.615 22.8272 139.1 21.3838 139.088 21.3709C137.533 19.707 136.212 19.1615 134.135 19.1615C130.315 19.1615 127.418 21.7492 127.418 26.9249C127.418 32.1006 130.314 34.6889 134.135 34.6889C136.23 34.6889 137.555 34.1339 139.126 32.4398L137.616 30.9916C136.477 32.2549 135.583 32.717 134.135 32.717C132.748 32.7724 131.427 32.1233 130.623 30.9916C129.914 30.0058 129.637 28.8351 129.637 26.9249C129.637 25.0146 129.914 23.8439 130.623 22.8581C131.427 21.7262 132.748 21.0772 134.135 21.1331H134.134ZM153.132 19.3236H150.367L143.494 26.0133L143.504 12.5664H141.286V34.5027H143.504L143.494 28.9701L146.184 26.2701L151.269 34.5027H154.01L147.721 24.7327L153.132 19.3236ZM163.382 18.9505C161.109 18.9505 159.573 19.8362 158.628 20.84C157.24 22.2868 156.886 24.0288 156.886 26.8044C156.886 29.6092 157.24 31.3502 158.628 32.7984C159.573 33.8022 161.108 34.6883 163.382 34.6883C165.655 34.6883 167.22 33.8022 168.165 32.7984C169.553 31.3515 169.907 29.6096 169.907 26.8044C169.907 24.0292 169.553 22.2868 168.165 20.84C167.22 19.8362 165.654 18.9505 163.382 18.9505ZM165.183 30.5543C164.702 31.0192 164.05 31.2647 163.382 31.2328C162.722 31.2647 162.08 31.0186 161.61 30.5543C160.813 29.7571 160.724 28.3992 160.724 26.8044C160.724 25.2097 160.813 23.8816 161.61 23.0844C162.079 22.62 162.722 22.3739 163.382 22.4059C164.05 22.3739 164.702 22.6194 165.183 23.0844C165.98 23.8816 166.069 25.21 166.069 26.8044C166.069 28.3988 165.98 29.7558 165.183 30.5543ZM180.128 19.1269L177.028 28.6339L173.898 19.1262H169.853L175.522 34.5095H178.534L184.173 19.1262L180.128 19.1269ZM190.703 18.9498C186.717 18.9498 184.001 21.7841 184.001 26.8038C184.001 33.0341 187.485 34.6876 191.116 34.6876C193.892 34.6876 195.398 33.831 196.963 32.2658L194.631 29.9929C193.656 30.9675 192.829 31.4397 191.146 31.4397C188.99 31.4397 187.78 29.9929 187.78 28.0135H197.406V26.302C197.406 22.0796 194.984 18.9498 190.703 18.9498ZM187.78 25.3864C187.786 24.817 187.906 24.2547 188.135 23.733C188.618 22.7566 189.614 22.1389 190.703 22.1389C191.793 22.1389 192.789 22.7566 193.272 23.733C193.5 24.2549 193.62 24.8171 193.626 25.3864H187.78ZM203.068 20.6032V19.1269H199.317V34.5102H203.156V25.2392C203.156 23.2903 204.455 22.4042 205.636 22.4042C206.415 22.3773 207.162 22.711 207.662 23.3086L210.567 20.3966C209.504 19.3335 208.441 18.9498 206.936 18.9498C205.471 18.9324 204.068 19.5327 203.068 20.6032H203.068ZM211.759 17.5233V34.4946H215.597V22.3655H218.431V19.4427H215.597V17.7598C215.597 16.874 216.04 16.3719 216.954 16.3719H218.43V13.1244H216.245C213.115 13.1244 211.757 15.3386 211.757 17.5233H211.759ZM234.233 18.9481C231.96 18.9481 230.424 19.8338 229.479 20.8376C228.092 22.2845 227.737 24.0264 227.737 26.8021C227.737 29.6069 228.092 31.3478 229.479 32.796C230.424 33.7998 231.959 34.6859 234.233 34.6859C236.506 34.6859 238.072 33.7998 239.016 32.796C240.404 31.3492 240.758 29.6072 240.758 26.8021C240.758 24.0268 240.404 22.2845 239.016 20.8376C238.071 19.8338 236.506 18.9481 234.233 18.9481ZM236.034 30.552C235.553 31.0168 234.901 31.2623 234.233 31.2304C233.573 31.2623 232.931 31.0162 232.461 30.552C231.664 29.7548 231.576 28.3968 231.576 26.8021C231.576 25.2073 231.664 23.8792 232.461 23.082C232.931 22.6177 233.573 22.3715 234.233 22.4035C234.901 22.3715 235.553 22.617 236.034 23.082C236.831 23.8792 236.92 25.2077 236.92 26.8021C236.92 28.3965 236.831 29.7534 236.034 30.552ZM258.893 19.1252L256.413 28.6339L253.253 19.1269H250.449L247.319 28.6339L244.839 19.1262H240.764L245.488 34.5095H248.648L251.866 24.8549L255.084 34.5095H258.244L262.938 19.1262L258.893 19.1252ZM224.093 29.8745V13.1244H220.256V30.1106C220.256 32.2956 221.585 34.5102 224.744 34.5102H226.928V31.262H225.452C224.478 31.262 224.096 30.7898 224.096 29.8745H224.093ZM111.026 21.7291L113.077 19.6781H108.877V14.6914H106.659V30.4359C106.659 32.6847 107.953 34.5027 110.541 34.5027H112.111V32.5925H110.941C109.524 32.5925 108.877 31.7603 108.877 30.3742V21.7291H111.026Z"/><path fill="#BBB" fill-rule="evenodd" d="M81.8527 27.0742H85.5843V42.0006H52V27.0742H55.7316V38.269H81.8527V27.0742Z" clip-rule="evenodd"/><path fill="#F58025" d="M59.798 25.9644L78.1252 29.8164L78.8956 26.1526L60.5684 22.2989L59.798 25.9644ZM62.2232 17.1887L79.2006 25.0956L80.7821 21.7002L63.8044 13.7933L62.2232 17.1887ZM66.9209 8.85946L81.314 20.845L83.711 17.9666L69.318 5.98139L66.9209 8.85946ZM76.2116 0L73.2059 2.23556L84.3831 17.2637L87.3887 15.0284L76.2116 0ZM59.4629 34.5368H78.1208V30.8052H59.4629V34.5368Z"/></svg>